<svg id="visual" viewBox="0 0 2000 1400" width="2000" height="1400" xmlns="http://www.w3.org/2000/svg" xmlns:xlink="http://www.w3.org/1999/xlink" version="1.1"><rect x="0" y="0" width="2000" height="1400" fill="#a7c7e7"></rect><defs><linearGradient id="grad1_0" x1="30%" y1="100%" x2="100%" y2="0%"><stop offset="21.42857142857143%" stop-color="#f8c9dc" stop-opacity="1"></stop><stop offset="78.57142857142858%" stop-color="#f8c9dc" stop-opacity="1"></stop></linearGradient></defs><defs><linearGradient id="grad1_1" x1="30%" y1="100%" x2="100%" y2="0%"><stop offset="21.42857142857143%" stop-color="#f8c9dc" stop-opacity="1"></stop><stop offset="78.57142857142858%" stop-color="#e2c7e7" stop-opacity="1"></stop></linearGradient></defs><defs><linearGradient id="grad1_2" x1="30%" y1="100%" x2="100%" y2="0%"><stop offset="21.42857142857143%" stop-color="#c5c7ec" stop-opacity="1"></stop><stop offset="78.57142857142858%" stop-color="#e2c7e7" stop-opacity="1"></stop></linearGradient></defs><defs><linearGradient id="grad1_3" x1="30%" y1="100%" x2="100%" y2="0%"><stop offset="21.42857142857143%" stop-color="#c5c7ec" stop-opacity="1"></stop><stop offset="78.57142857142858%" stop-color="#a7c7e7" stop-opacity="1"></stop></linearGradient></defs><defs><linearGradient id="grad2_0" x1="0%" y1="100%" x2="70%" y2="0%"><stop offset="21.42857142857143%" stop-color="#f8c9dc" stop-opacity="1"></stop><stop offset="78.57142857142858%" stop-color="#f8c9dc" stop-opacity="1"></stop></linearGradient></defs><defs><linearGradient id="grad2_1" x1="0%" y1="100%" x2="70%" y2="0%"><stop offset="21.42857142857143%" stop-color="#e2c7e7" stop-opacity="1"></stop><stop offset="78.57142857142858%" stop-color="#f8c9dc" stop-opacity="1"></stop></linearGradient></defs><defs><linearGradient id="grad2_2" x1="0%" y1="100%" x2="70%" y2="0%"><stop offset="21.42857142857143%" stop-color="#e2c7e7" stop-opacity="1"></stop><stop offset="78.57142857142858%" stop-color="#c5c7ec" stop-opacity="1"></stop></linearGradient></defs><defs><linearGradient id="grad2_3" x1="0%" y1="100%" x2="70%" y2="0%"><stop offset="21.42857142857143%" stop-color="#a7c7e7" stop-opacity="1"></stop><stop offset="78.57142857142858%" stop-color="#c5c7ec" stop-opacity="1"></stop></linearGradient></defs><g transform="translate(2000, 1400)"><path d="M-1220.7 0C-1192.8 -46 -1164.9 -92 -1160.5 -140.9C-1156 -189.8 -1174.9 -241.6 -1171.9 -288.9C-1168.9 -336.1 -1144.1 -378.7 -1133.2 -429.8C-1122.4 -480.8 -1125.7 -540.3 -1080.8 -567.3C-1036 -594.2 -943 -588.6 -911.9 -629.4C-880.7 -670.3 -911.4 -757.6 -859.3 -761.3C-807.2 -764.9 -672.2 -684.9 -637.9 -720.1C-603.6 -755.2 -670 -905.6 -650.4 -942.3C-630.9 -979 -525.5 -902 -459.6 -875.7C-393.7 -849.4 -367.4 -873.7 -333 -878C-298.6 -882.3 -256.1 -866.6 -224.2 -909.8C-192.4 -953 -171.2 -1055.2 -135.6 -1116.8C-100 -1178.4 -50 -1199.5 0 -1220.7L0 0Z" fill="#b6c7eb"></path><path d="M-915.5 0C-894.6 -34.5 -873.7 -69 -870.4 -105.7C-867 -142.4 -881.2 -181.2 -878.9 -216.6C-876.7 -252.1 -858 -284 -849.9 -322.3C-841.8 -360.6 -844.3 -405.3 -810.6 -425.5C-777 -445.6 -707.3 -441.4 -683.9 -472.1C-660.5 -502.7 -683.6 -568.2 -644.5 -570.9C-605.4 -573.7 -504.2 -513.7 -478.4 -540.1C-452.7 -566.4 -502.5 -679.2 -487.8 -706.7C-473.2 -734.3 -394.1 -676.5 -344.7 -656.8C-295.3 -637 -275.5 -655.3 -249.7 -658.5C-223.9 -661.7 -192.1 -649.9 -168.2 -682.3C-144.3 -714.7 -128.4 -791.4 -101.7 -837.6C-75 -883.8 -37.5 -899.7 0 -915.5L0 0Z" fill="#d4c7eb"></path><path d="M-610.3 0C-596.4 -23 -582.5 -46 -580.2 -70.5C-578 -94.9 -587.5 -120.8 -586 -144.4C-584.5 -168 -572 -189.4 -566.6 -214.9C-561.2 -240.4 -562.8 -270.2 -540.4 -283.6C-518 -297.1 -471.5 -294.3 -455.9 -314.7C-440.4 -335.1 -455.7 -378.8 -429.6 -380.6C-403.6 -382.5 -336.1 -342.4 -319 -360C-301.8 -377.6 -335 -452.8 -325.2 -471.2C-315.5 -489.5 -262.7 -451 -229.8 -437.9C-196.9 -424.7 -183.7 -436.8 -166.5 -439C-149.3 -441.1 -128 -433.3 -112.1 -454.9C-96.2 -476.5 -85.6 -527.6 -67.8 -558.4C-50 -589.2 -25 -599.8 0 -610.3L0 0Z" fill="#eec7e2"></path><path d="M-305.2 0C-298.2 -11.5 -291.2 -23 -290.1 -35.2C-289 -47.5 -293.7 -60.4 -293 -72.2C-292.2 -84 -286 -94.7 -283.3 -107.4C-280.6 -120.2 -281.4 -135.1 -270.2 -141.8C-259 -148.5 -235.8 -147.1 -228 -157.4C-220.2 -167.6 -227.9 -189.4 -214.8 -190.3C-201.8 -191.2 -168.1 -171.2 -159.5 -180C-150.9 -188.8 -167.5 -226.4 -162.6 -235.6C-157.7 -244.8 -131.4 -225.5 -114.9 -218.9C-98.4 -212.3 -91.8 -218.4 -83.2 -219.5C-74.6 -220.6 -64 -216.6 -56.1 -227.4C-48.1 -238.2 -42.8 -263.8 -33.9 -279.2C-25 -294.6 -12.5 -299.9 0 -305.2L0 0Z" fill="#f8c9dc"></path></g><g transform="translate(0, 0)"><path d="M1220.7 0C1172 43.3 1123.4 86.7 1125.7 136.7C1128.1 186.7 1181.5 243.4 1185.2 292.1C1188.9 340.8 1142.9 381.6 1091.2 413.8C1039.4 446 981.9 469.7 913.8 479.6C845.7 489.5 767.1 485.6 732.5 505.6C697.8 525.5 707 569.3 736.5 652.5C766 735.8 815.8 858.6 789.1 890.7C762.4 922.9 659.3 864.4 613.5 888.8C567.8 913.2 579.4 1020.4 543.3 1035.1C507.1 1049.7 423.2 971.8 375.5 990.2C327.9 1008.6 316.4 1123.2 278.6 1130.2C240.7 1137.1 176.3 1036.3 125.5 1033.4C74.6 1030.5 37.3 1125.6 0 1220.7L0 0Z" fill="#b6c7eb"></path><path d="M915.5 0C879 32.5 842.5 65 844.3 102.5C846.1 140 886.1 182.5 888.9 219.1C891.7 255.6 857.2 286.2 818.4 310.4C779.6 334.5 736.4 352.3 685.3 359.7C634.3 367.1 575.3 364.2 549.3 379.2C523.3 394.1 530.3 426.9 552.4 489.4C574.5 551.8 611.9 643.9 591.8 668C571.8 692.2 494.4 648.3 460.1 666.6C425.8 684.9 434.6 765.3 407.4 776.3C380.3 787.3 317.4 728.9 281.6 742.6C245.9 756.4 237.3 842.4 208.9 847.6C180.5 852.8 132.2 777.2 94.1 775.1C56 772.9 28 844.2 0 915.5L0 0Z" fill="#d4c7eb"></path><path d="M610.3 0C586 21.7 561.7 43.3 562.9 68.3C564 93.4 590.7 121.7 592.6 146.1C594.4 170.4 571.5 190.8 545.6 206.9C519.7 223 490.9 234.8 456.9 239.8C422.9 244.7 383.6 242.8 366.2 252.8C348.9 262.8 353.5 284.6 368.3 326.3C383 367.9 407.9 429.3 394.6 445.4C381.2 461.4 329.6 432.2 306.8 444.4C283.9 456.6 289.7 510.2 271.6 517.5C253.6 524.9 211.6 485.9 187.8 495.1C163.9 504.3 158.2 561.6 139.3 565.1C120.3 568.6 88.2 518.1 62.7 516.7C37.3 515.3 18.7 562.8 0 610.3L0 0Z" fill="#eec7e2"></path><path d="M305.2 0C293 10.8 280.8 21.7 281.4 34.2C282 46.7 295.4 60.8 296.3 73C297.2 85.2 285.7 95.4 272.8 103.5C259.9 111.5 245.5 117.4 228.4 119.9C211.4 122.4 191.8 121.4 183.1 126.4C174.4 131.4 176.8 142.3 184.1 163.1C191.5 183.9 204 214.6 197.3 222.7C190.6 230.7 164.8 216.1 153.4 222.2C141.9 228.3 144.9 255.1 135.8 258.8C126.8 262.4 105.8 243 93.9 247.5C82 252.1 79.1 280.8 69.6 282.5C60.2 284.3 44.1 259.1 31.4 258.4C18.7 257.6 9.3 281.4 0 305.2L0 0Z" fill="#f8c9dc"></path></g></svg>